<svg xmlns="http://www.w3.org/2000/svg" version="1.1" xmlns:xlink="http://www.w3.org/1999/xlink" xmlns:svgjs="http://svgjs.dev/svgjs" width="1080" height="1080"><svg width="1080" height="1080" viewBox="0 0 1080 1080" fill="none" xmlns="http://www.w3.org/2000/svg">
<rect width="1080" height="1080" fill="white"></rect>
<path d="M828.161 363.843C799.723 363.706 771.285 363.784 742.846 363.804C715.525 363.804 712.056 366.757 707.352 393.964C707.019 395.881 706.862 397.818 706.529 399.734C698.337 447.108 690.262 494.52 681.913 541.873C671.486 601.08 661.04 660.287 650.26 719.434C644.145 752.999 640.167 787.013 631.367 820.049C622.194 854.473 589.934 877.847 554.832 876.888C518.201 875.911 488.548 851.383 481.002 815.393C476.867 795.658 473.143 775.825 469.596 755.952C457.777 689.508 446.116 623.045 434.415 556.582C427.085 514.94 419.873 473.278 412.464 431.656C409.544 415.245 406.604 398.815 402.998 382.522C400.92 373.153 397 364.097 385.202 364.038C349.747 363.804 314.312 363.667 278.857 364.117C267.882 364.254 262.1 371.315 262.002 382.424C261.963 387.823 262.551 393.28 263.472 398.6C272.213 448.653 281.17 498.666 289.891 548.7C298.417 597.598 306.629 646.556 315.174 695.455C325.385 753.918 335.832 812.323 346.102 870.786C353.138 910.902 359.782 951.078 367.092 991.136C370.6 1010.4 375.226 1013.73 394.492 1013.75C448.252 1013.79 502.012 1013.75 555.773 1013.75C610.709 1013.75 665.626 1013.79 720.562 1013.73C736.653 1013.71 741.906 1009.29 745.335 993.463C745.904 990.803 746.374 988.123 746.825 985.444C755.37 936.545 763.857 887.627 772.441 838.747C781.084 789.457 789.865 740.187 798.488 690.897C808.719 632.453 818.95 573.99 829.043 515.507C836.373 473.083 843.86 430.697 850.465 388.175C853.13 371.041 845.859 363.901 828.122 363.823L828.161 363.843Z" fill="black"></path>
<path d="M631.424 303.603C607.837 282.338 575.212 265.885 569.428 245.186C565.644 231.648 613.17 217.621 580.604 197.295C570.311 190.858 563.331 182.72 562.076 175.051C558.625 154.138 587.584 154.392 596.328 139.269C604.132 125.77 592.034 96.6793 577.859 90.1451C554.312 79.2873 532.51 93.1579 517.609 88.5409C503.198 84.0804 502.531 81.7523 487.435 81.4393C460.927 80.8719 436.556 112.076 412.734 100.455C396.167 92.3362 392.422 67.2753 370.757 66.0427C361.719 65.5341 353.072 69.6033 346.916 76.1962C334.583 89.4017 332.937 107.733 332.76 125.047C332.603 139.758 333.231 154.881 328.309 168.771C322.545 184.989 309.33 199.192 309.664 216.408C309.919 230.475 319.467 242.819 330.643 251.388C332.348 252.699 334.113 253.931 335.897 255.144C327.898 258.705 322.702 268.017 318.153 276.097C297.939 311.918 264.863 340.344 226.337 354.977C214.259 359.555 201.535 362.9 190.712 369.943C179.889 376.967 171.027 388.861 172.086 401.715C172.909 411.653 179.301 420.104 183.262 429.241C191.418 448.119 192.614 474.628 213.259 479.949C222.925 482.434 233.081 478.736 239.787 471.361C254.276 455.417 253.727 434.66 257.374 415.233C260.158 400.384 266.687 384.636 280.352 378.101C286.273 375.265 292.979 374.482 298.998 371.9C322.741 361.727 328.29 328.586 350.661 315.654C362.405 308.866 377.835 309.511 396.383 316.535C377.796 307.086 367.189 291.924 346.563 291.924C332.74 291.924 324.918 307.281 318.369 322.834C308.193 346.976 289.979 362.235 272.274 365.013C265.314 366.109 263.903 359.496 269.432 358.283C288.783 353.999 303.115 338.016 310.742 313.307C318.291 288.852 331.505 276.997 341.093 273.769C355.131 269.054 370.992 275.021 381.894 285.037C381.952 285.096 382.011 285.155 382.09 285.214C384.286 287.248 387.54 284.372 385.697 281.986C377.051 270.834 368.914 267.958 363.738 255.77C358.131 242.526 365.385 232.881 372.247 220.243C375.267 214.667 379.502 209.737 381.619 203.751C384.874 194.575 384.952 184.618 383.462 174.992C381.913 165.015 373.11 161.591 373.11 168.752C373.11 176.46 373.306 185.889 368.718 194.106C362.581 205.101 355.817 197.803 357.739 191.602C361.189 180.392 365.503 168.478 356.974 161.18C343.151 149.364 343.916 144.493 342.661 134.202C341.328 123.188 341.603 105.894 347.21 92.2384C353.778 76.2549 370.326 71.5988 381.756 80.9111C395.559 92.1406 402.716 104.994 403.245 110.53C405.911 138.428 371.698 139.602 384.717 152.592C392.187 160.046 425.773 142.791 447.124 149.54C451.771 151.007 456.613 153.512 457.829 156.153C464.064 169.73 436.576 160.965 457.554 183.229C468.985 195.378 443.105 190.428 421.342 200.758C400.931 210.461 392.363 218.052 388.677 236.676C384.031 260.133 407.833 256.299 413.577 255.516C442.948 251.525 411.107 284.47 406.951 291.513C402.97 298.243 404.441 309.512 412.166 310.627C419.95 311.722 424.165 306.127 430.89 310.138C434.184 312.113 435.262 314.539 435.007 317.2C434.556 321.954 438.556 325.945 443.32 325.671H443.477C445.457 325.554 447.3 324.712 448.692 323.284C452.437 319.43 459.045 311.018 455.437 302.195C452.241 294.389 428.498 284.861 432.36 271.049C434.733 262.52 449.398 257.609 471.632 259.292C485.984 260.387 497.865 258.216 507.394 246.849C516.06 236.481 518.354 218.815 538.627 218.815C567.625 218.815 566.683 245.343 564.742 244.639C547.587 238.339 538.333 247.886 538.078 247.651C526.883 237.596 515.393 243.954 506.786 256.279C492.807 276.273 475.239 266.159 468.162 279.305C462.123 290.515 472.102 302.743 465.632 313.718C464.24 316.065 459.633 319.685 461.103 321.66C463.26 324.575 477.925 312.544 493.552 318.902C510.903 325.964 513.335 311.253 512.374 297.304C511.825 289.341 522.295 286.935 529.98 288.578C542.313 291.22 551.841 303.662 554.567 320.545C555.861 328.566 554.743 337.37 559.017 344.276C561.998 349.108 567.35 352.434 569.291 357.775C571.428 363.663 568.801 370.08 567.311 376.165C559.762 406.997 587.584 440.666 619.385 440.431C651.187 440.196 683.792 398.624 690.4 367.576C707.261 288.168 649.403 319.822 631.365 303.584L631.424 303.603ZM558.684 141.402C516.746 148.992 488.866 187.22 483.768 227.775C481.651 244.541 466.417 239.728 468.024 222.63C470.475 196.649 503.316 161.493 523.079 148.132C549.842 130.035 543.999 122.718 531.274 123.403C515.06 124.264 500.826 138.291 490.748 134.32C480.141 130.153 489.395 117.73 480.553 111.587C468.201 102.998 444.987 115.793 449.986 105.092C454.417 95.6424 484.788 97.6184 493.297 104.896C501.002 111.489 506.021 120.977 520.667 115.578C533.764 110.746 551.743 89.8321 568.664 94.3317C590.074 100.025 595.603 134.711 558.684 141.402ZM650.461 343.396C642.344 348.893 627.62 342.496 620.228 335.12C608.935 323.852 606.367 326.962 607.582 336.079C610.759 359.575 586.466 355.877 590.642 387.805C590.976 390.27 587.447 391.131 586.662 388.764C581.094 371.763 587.407 368.183 587.407 354.586C587.407 325.378 608.543 351.632 589.035 317.669C580.898 303.505 596.25 297.382 601.583 305.99C608.974 317.904 648.364 347.563 648.187 317.748C648.187 315.517 651.324 314.97 652.05 317.083C655.5 327.099 659.99 336.92 650.442 343.376L650.461 343.396Z" fill="black"></path>
<path d="M508.863 337.685C497.492 328.196 486.316 328.431 477.375 331.287C465.435 335.102 460.083 344.923 459.043 346.723C450.966 360.554 449.927 377.223 449.083 393.206C446.986 432.959 450.24 509.648 442.79 508.827C435.692 508.044 438.574 467.078 436.594 434.642C431.34 349.129 424.046 351.653 413.537 343.515C402.185 334.711 382.441 331.366 370.913 335.513C370.874 335.513 370.834 335.552 370.795 335.552C363.462 337.567 365.756 341.617 372.736 342.399C383.108 343.534 390.362 350.068 391.402 356.348C392.95 365.739 386.912 374.445 368.09 371.94C352.738 369.886 338.072 372.723 338.072 388.002C339.013 413.063 355.365 432.724 354.62 460.348C354.346 470.071 352.699 480.753 358.228 488.774C363.423 496.306 373.207 498.869 380.736 504.053C390.088 510.509 395.774 520.878 402.577 530.014C409.381 539.131 418.792 547.797 430.183 547.895C443.986 548.013 454.377 535.903 466.847 530.034C468.67 529.173 470.376 528.469 472.082 527.843C476.689 526.16 479.709 521.719 479.826 516.828C479.846 515.909 479.846 514.989 479.826 514.168C479.395 504.425 476.591 494.976 474.101 485.566C469.278 467.254 465.69 447.867 468.611 429.379C468.807 428.127 470.631 428.264 470.631 429.516C470.729 449.001 475.768 468.487 485.218 485.546C487.512 489.694 490.923 494.213 495.688 494.135C498.374 494.095 500.844 492.491 502.57 490.437C508.177 483.785 506.02 474.884 502.374 467C499.433 460.661 494.747 451.936 491.923 440.589C491.629 439.415 493.296 438.809 493.845 439.885C501.589 455.066 511.981 464.339 517.686 466.687C521.313 468.174 525.391 466.119 526.332 462.324C531.705 440.785 536.391 418.854 534.665 396.786C532.705 371.843 528.097 353.746 508.863 337.685Z" fill="black"></path>
<path d="M553.464 538.4C573.811 509.404 594.355 430.132 547.682 399.098C543.577 396.374 545.708 410.579 543.616 432.013C542.195 446.609 537.499 459.149 539.867 460.677C551.076 467.965 547.919 490.889 533.966 518.984C511.626 563.949 480.839 600.528 448 634.894C448.928 640.184 449.875 645.474 450.802 650.764C487.45 615.987 524.572 579.604 553.484 538.4H553.464Z" fill="black"></path>
<path d="M605.476 622.053C654.944 589.863 720.804 590.488 761.704 581.629C802.603 572.77 846.072 560.958 872.972 532.855C901.108 503.462 907.088 460.731 907.853 424.062C908.127 410.861 908.245 397.465 906.069 384.577C905.206 379.492 896.657 379.492 895.089 384.577C883.384 422.732 862.13 467.126 837.209 491.2C799.094 528.025 742.195 558.924 681.433 569.035C602.496 582.177 549.656 613.585 536.049 654.517C525.775 685.455 547.989 740.82 611.496 744.36C606.77 745.826 602.045 747.371 597.359 749.014C556.008 763.545 516.657 782.925 478.581 804.672C454.072 818.675 430.093 833.655 406.467 848.987C388.174 860.858 367.273 873.492 347.921 882.625C322.53 894.593 299.845 900.499 289.257 890.623C268.16 870.949 288.787 828.316 329.432 777.782C328 769.685 326.589 761.589 325.157 753.492C295.473 786.484 270.513 821.315 256.161 854.698C230.064 915.44 278.728 963.647 346.548 914.717C348.607 913.231 350.666 911.764 352.725 910.278C396.605 878.694 439.406 848.831 482.777 823.094C535.029 792.078 588.085 767.065 644.788 752.221C662.317 747.626 680.198 743.988 698.511 741.465C730.137 737.124 762.272 739.822 788.526 748.29C816.367 757.267 837.562 772.736 844.405 793.251C857.62 832.97 827.073 876.425 761.625 917.67C760.547 918.354 759.508 918.98 758.449 919.665C757.155 927.038 755.88 934.391 754.586 941.764C832.072 892.931 894.854 846.719 886.462 799.392C880.168 763.838 842.876 740.448 791.624 730.709C749.822 722.75 698.746 723.884 647.631 734.894C645.808 735.285 643.984 735.735 642.18 736.165C564.165 737.886 539.519 665.019 605.535 622.092L605.476 622.053Z" fill="black"></path>
</svg><style>@media (prefers-color-scheme: light) { :root { filter: none; } }
@media (prefers-color-scheme: dark) { :root { filter: none; } }
</style></svg>