<?xml version="1.0" standalone="no"?>
<!DOCTYPE svg PUBLIC "-//W3C//DTD SVG 20010904//EN"
 "http://www.w3.org/TR/2001/REC-SVG-20010904/DTD/svg10.dtd">
<svg version="1.0" xmlns="http://www.w3.org/2000/svg"
 width="400.000000pt" height="400.000000pt" viewBox="0 0 400.000000 400.000000"
 preserveAspectRatio="xMidYMid meet">
<metadata>
Created by potrace 1.14, written by Peter Selinger 2001-2017
</metadata>
<g transform="translate(0.000000,400.000000) scale(0.100000,-0.100000)"
fill="#000000" stroke="none">
<path d="M1100 3010 c-25 -25 -25 -30 -1 -160 11 -58 29 -161 41 -230 12 -69
30 -172 40 -230 10 -58 28 -161 40 -230 12 -69 30 -172 40 -230 10 -58 28
-159 39 -225 12 -66 44 -248 71 -404 27 -156 55 -290 61 -297 17 -20 1121 -21
1138 -1 9 12 31 125 132 702 11 66 29 167 39 225 10 58 28 161 40 230 12 69
30 172 40 230 10 58 28 161 40 230 12 69 30 172 41 230 24 130 24 135 -1 160
-18 18 -33 20 -194 20 -151 0 -177 -2 -195 -17 -22 -19 -31 -65 -121 -588 -22
-132 -45 -260 -50 -285 -5 -25 -19 -101 -30 -170 -71 -410 -78 -436 -137 -492
-122 -116 -335 -75 -399 78 -12 29 -33 141 -145 769 -120 673 -119 669 -140
688 -18 15 -44 17 -195 17 -161 0 -176 -2 -194 -20z"/>
</g>
</svg>
