<?xml version="1.0" standalone="no"?>
<!DOCTYPE svg PUBLIC "-//W3C//DTD SVG 20010904//EN"
 "http://www.w3.org/TR/2001/REC-SVG-20010904/DTD/svg10.dtd">
<svg version="1.0" xmlns="http://www.w3.org/2000/svg"
 width="512.000000pt" height="512.000000pt" viewBox="0 0 512.000000 512.000000"
 preserveAspectRatio="xMidYMid meet">
<metadata>
Created by potrace 1.14, written by Peter Selinger 2001-2017
</metadata>
<g transform="translate(0.000000,512.000000) scale(0.100000,-0.100000)"
fill="#000000" stroke="none">
<path d="M1780 5081 c-890 -292 -1555 -1052 -1734 -1981 -36 -182 -45 -301
-41 -535 2 -126 6 -250 10 -275 13 -96 46 -268 63 -334 l18 -70 233 415 c129
228 243 430 254 449 11 19 119 213 242 430 122 217 233 415 247 440 14 25 104
185 200 355 96 171 187 331 201 357 15 26 46 83 70 125 25 43 53 94 64 113 11
19 81 144 156 276 144 254 154 274 141 273 -5 0 -61 -17 -124 -38z"/>
<path d="M3213 5106 c3 -7 247 -443 543 -967 295 -525 548 -974 562 -999 14
-25 153 -272 310 -550 157 -278 310 -550 340 -604 l56 -100 18 70 c27 107 52
246 65 369 10 90 10 446 0 550 -13 142 -43 296 -88 454 -238 832 -872 1492
-1686 1755 -128 41 -127 41 -120 22z"/>
<path d="M2280 3563 c-151 -269 -300 -533 -330 -588 -92 -163 -328 -581 -395
-700 -139 -244 -205 -365 -205 -374 0 -5 510 -9 1210 -9 727 0 1210 4 1210 10
0 5 -92 172 -204 371 -112 199 -213 378 -223 397 -11 19 -180 319 -375 665
-195 347 -365 649 -378 673 -13 23 -26 42 -30 42 -3 0 -129 -219 -280 -487z"/>
<path d="M730 785 c0 -15 193 -190 295 -267 355 -269 758 -435 1210 -500 140
-20 544 -17 685 5 552 86 1026 324 1433 720 l48 47 -1835 0 c-1010 0 -1836 -2
-1836 -5z"/>
</g>
</svg>
