<svg width="694" height="194" viewBox="0 0 694 194" fill="none" xmlns="http://www.w3.org/2000/svg">
<path d="M333.433 96.9044C333.433 125.711 333.433 154.53 333.433 183.336C333.433 184.948 333.458 186.572 333.228 188.158C332.703 191.82 330.922 193.394 327.233 193.419C319.329 193.471 311.426 193.445 303.509 193.445C282.425 193.445 261.34 193.484 240.255 193.432C213.419 193.355 189.144 173.73 183.585 147.296C179.358 127.168 183.88 109.012 197.637 93.6937C204.631 85.9054 213.906 81.4697 223.961 78.8522C235.413 75.8606 247.121 76.2346 258.791 76.2733C265.324 76.2991 271.857 76.2733 278.39 76.2733C285.345 76.2733 290.828 73.6041 294.299 67.3245C297.809 60.9676 297.309 54.6622 293.736 48.6018C291.455 44.7334 287.817 42.5285 283.437 41.8193C280.734 41.3809 277.967 41.2133 275.226 41.2004C255.627 41.1488 236.041 41.1875 216.442 41.1746C209.076 41.1746 206.835 38.8923 206.822 31.4393C206.809 23.8315 206.783 16.2238 206.835 8.6161C206.886 2.54281 208.884 0.608643 214.93 0.608643C251.489 0.608643 288.035 0.608643 324.594 0.608643C331.947 0.608643 333.446 2.06572 333.446 9.42845C333.458 38.5828 333.446 67.7371 333.446 96.9044H333.433ZM259.956 152.892C266.489 152.892 273.009 152.905 279.542 152.892C289.572 152.853 296.605 145.8 296.707 135.704C296.823 125.13 289.931 117.871 279.594 117.819C266.656 117.755 253.705 117.755 240.767 117.819C230.994 117.858 224.679 123.312 223.718 133.073C222.667 143.853 228.496 152.918 240.703 152.905C247.121 152.905 253.526 152.905 259.944 152.905L259.956 152.892Z" fill="#D4D4D4"/>
<path d="M694 97.2912C694 126.446 694 155.613 694 184.767C694 192.31 692.872 193.458 685.545 193.458C657.582 193.458 629.618 193.252 601.668 193.522C575.677 193.767 549.173 174.516 544.037 145.155C540.732 126.291 544.882 108.87 557.922 94.3513C566.915 84.3452 578.623 79.3937 591.702 77.5111C607.547 75.2288 623.508 76.6085 639.405 76.3119C652.817 76.0669 661.066 63.6496 655.878 51.1678C653.739 46.0229 649.729 42.9798 644.349 41.7935C641.877 41.239 639.354 41.1746 636.83 41.1746C617.116 41.1875 597.415 41.1875 577.701 41.1746C569.759 41.1746 567.824 39.1888 567.812 31.1169C567.812 23.5092 567.786 15.9015 567.812 8.29373C567.837 2.36229 569.579 0.608643 575.344 0.608643C612.364 0.608643 649.371 0.608643 686.391 0.608643C692.565 0.608643 694 2.06572 694 8.42268C694 38.0412 694 67.6598 694 97.2783V97.2912ZM620.997 117.793C614.926 117.793 608.841 118.129 602.808 117.703C592.304 116.955 583.619 124.872 584.49 136.697C585.169 145.968 591.548 152.802 600.745 152.853C614.131 152.931 627.53 152.931 640.916 152.853C650.882 152.802 657.197 145.981 657.21 135.472C657.21 124.64 651.1 117.948 640.916 117.793C634.281 117.703 627.646 117.78 620.997 117.78V117.793Z" fill="#D4D4D4"/>
<path d="M367.071 96.9044C367.071 68.0983 367.071 39.2921 367.071 10.4859C367.071 8.87405 367.071 7.24935 367.314 5.66334C367.827 2.37525 369.697 0.595818 373.168 0.608712C399.403 0.647396 425.688 -0.293899 451.871 0.905285C483.947 2.37525 509.989 22.929 517.354 55.6293C519.109 63.4176 519.903 71.2574 519.891 79.2391C519.826 114.157 519.865 149.062 519.852 183.981C519.852 185.476 519.942 187.011 519.66 188.455C519.071 191.498 517.303 193.419 514.011 193.419C504.045 193.432 494.079 193.432 484.113 193.419C481.154 193.419 479.373 191.782 478.848 188.958C478.515 187.166 478.477 185.296 478.477 183.465C478.451 148.095 478.49 112.713 478.451 77.3436C478.426 60.31 468.677 46.4614 453.011 42.5286C439.484 39.1373 423.741 42.0128 414.672 54.5204C410.56 60.194 408.562 66.5896 408.549 73.5784C408.523 110.34 408.536 147.09 408.523 183.852C408.523 185.231 408.587 186.624 408.421 187.991C407.998 191.434 405.91 193.394 402.477 193.419C392.626 193.471 382.776 193.432 372.912 193.445C369.787 193.445 367.955 191.808 367.417 188.829C367.109 187.153 367.084 185.399 367.084 183.671C367.071 154.749 367.071 125.827 367.071 96.9044Z" fill="#D4D4D4"/>
<path d="M86.7569 193.445C70.9497 193.445 55.1298 193.445 39.3226 193.445C33.6479 193.445 32.3029 192.452 31.2653 186.74C29.1133 174.851 27.1662 162.937 25.0911 151.035C22.068 133.692 18.9937 116.362 15.9962 99.0191C13.4855 84.5129 11.0645 69.9937 8.56659 55.4746C5.97903 40.6331 3.35305 25.7916 0.778303 10.9501C0.509299 9.36405 0.342773 7.73935 0.342773 6.14044C0.368393 2.83946 2.07208 0.750557 5.30012 0.711873C15.7272 0.570034 26.1543 0.621612 36.5814 0.686084C40.0528 0.711873 41.2057 3.39392 41.8205 6.16622C42.8837 10.9887 43.7548 15.8629 44.613 20.737C46.7907 33.0898 48.9171 45.4427 51.0691 57.7956C54.5149 77.5112 57.9351 97.2268 61.4193 116.942C62.4569 122.835 63.5586 128.715 64.7755 134.569C66.9915 145.246 75.7149 152.518 86.4879 152.815C96.8125 153.098 106.304 146.161 108.994 135.949C111.582 126.149 112.748 116.066 114.554 106.098C117.718 88.5489 120.792 70.9866 123.867 53.4244C126.313 39.3694 128.696 25.3145 131.104 11.2595C131.206 10.6922 131.245 10.1119 131.347 9.54457C132.731 1.47265 133.756 0.595823 141.787 0.595823C150.152 0.595823 158.517 0.570034 166.881 0.608718C172.095 0.634507 174.234 2.7492 173.453 7.82961C171.506 20.4404 169.302 33.0254 167.15 45.6103C164.179 62.9534 161.168 80.2964 158.158 97.6394C155.622 112.262 153.034 126.884 150.498 141.506C147.974 156.013 145.476 170.519 142.966 185.025C142.825 185.825 142.697 186.611 142.53 187.398C141.518 192.091 139.981 193.407 135.242 193.407C119.089 193.432 102.936 193.407 86.7697 193.407L86.7569 193.445Z" fill="#D4D4D4"/>
</svg>
