<svg width="272" height="252" viewBox="0 0 272 252" fill="none" xmlns="http://www.w3.org/2000/svg">
<path d="M238.951 123.85C226.683 112.765 209.715 104.189 206.706 93.4004C204.738 86.3437 229.457 79.0322 212.519 68.437C207.165 65.082 203.535 60.8399 202.882 56.8425C201.088 45.9414 216.149 46.074 220.697 38.1914C224.756 31.1551 218.464 15.9915 211.091 12.5855C198.844 6.92596 187.505 14.156 179.754 11.7494C172.259 9.42434 171.913 8.21084 164.061 8.04768C150.274 7.75195 137.598 24.0169 125.208 17.9596C116.591 13.7277 114.644 0.664721 103.376 0.0222816C98.6745 -0.242852 94.1774 1.87822 90.9754 5.31476C84.5612 12.198 83.7046 21.7531 83.6129 30.7778C83.5313 38.4463 83.8576 46.3289 81.298 53.5691C78.3 62.0228 71.4269 69.4262 71.6003 78.3999C71.7328 85.7319 76.699 92.1665 82.5115 96.633C83.3987 97.3162 84.3165 97.9586 85.2445 98.5909C81.0839 100.447 78.3816 105.301 76.0158 109.512C65.5022 128.184 48.2991 143.001 28.2611 150.628C21.9794 153.015 15.3613 154.758 9.73231 158.43C4.10331 162.09 -0.505938 168.29 0.0447249 174.99C0.473018 180.171 3.79739 184.576 5.85727 189.338C10.0994 199.179 10.7215 212.996 21.4594 215.77C26.4867 217.065 31.769 215.138 35.2565 211.293C42.7925 202.982 42.5069 192.163 44.4037 182.037C45.8517 174.297 49.2474 166.088 56.3551 162.682C59.4347 161.203 62.9222 160.795 66.0528 159.449C78.402 154.147 81.2878 136.872 92.9231 130.132C99.0314 126.593 107.057 126.93 116.704 130.59C107.036 125.665 101.52 117.762 90.7919 117.762C83.6027 117.762 79.5339 125.767 76.1279 133.874C70.8355 146.458 61.362 154.412 52.1537 155.86C48.5336 156.431 47.7994 152.984 50.6751 152.352C60.74 150.119 68.1943 141.787 72.1611 128.908C76.0872 116.161 82.9602 109.981 87.9468 108.299C95.2482 105.841 103.498 108.951 109.168 114.173C109.198 114.203 109.229 114.234 109.27 114.264C110.412 115.325 112.105 113.826 111.146 112.582C106.649 106.769 102.417 105.27 99.7248 98.9172C96.8084 92.0135 100.581 86.9862 104.151 80.3986C105.721 77.4923 107.924 74.9226 109.025 71.8022C110.718 67.0196 110.758 61.8291 109.983 56.8119C109.178 51.6112 104.599 49.8267 104.599 53.5589C104.599 57.5767 104.701 62.4919 102.315 66.7748C99.1232 72.5058 95.6051 68.7021 96.6044 65.4695C98.3992 59.6264 100.643 53.4162 96.2067 49.6125C89.0175 43.4532 89.4152 40.9141 88.7626 35.5502C88.0692 29.809 88.2119 20.7945 91.1284 13.6767C94.5445 5.34535 103.151 2.91836 109.096 7.77235C116.275 13.6257 119.997 20.3254 120.273 23.2113C121.66 37.7529 103.865 38.3647 110.636 45.1358C114.521 49.021 131.99 40.0269 143.095 43.545C145.511 44.3098 148.03 45.6151 148.662 46.9918C151.905 54.0688 137.608 49.5003 148.52 61.105C154.465 67.4377 141.004 64.8577 129.685 70.242C119.069 75.2999 114.613 79.2565 112.696 88.9645C110.279 101.191 122.659 99.1925 125.647 98.7846C140.923 96.7044 124.362 113.877 122.2 117.548C120.13 121.056 120.895 126.93 124.913 127.511C128.961 128.082 131.153 125.165 134.651 127.256C136.364 128.286 136.925 129.55 136.793 130.937C136.558 133.415 138.638 135.495 141.116 135.353H141.198C142.228 135.292 143.186 134.853 143.91 134.109C145.858 132.1 149.295 127.715 147.418 123.116C145.756 119.047 133.407 114.081 135.416 106.881C136.65 102.435 144.278 99.8758 155.841 100.753C163.306 101.324 169.486 100.192 174.442 94.2672C178.949 88.8625 180.142 79.6542 190.686 79.6542C205.768 79.6542 205.279 93.482 204.269 93.1148C195.346 89.8313 190.533 94.8076 190.401 94.6853C184.578 89.4438 178.602 92.7579 174.125 99.1823C166.855 109.604 157.718 104.332 154.036 111.185C150.896 117.028 156.086 123.401 152.721 129.122C151.997 130.346 149.601 132.232 150.365 133.262C151.487 134.782 159.115 128.51 167.242 131.824C176.267 135.506 177.531 127.837 177.032 120.566C176.746 116.416 182.192 115.162 186.189 116.018C192.603 117.395 197.559 123.881 198.977 132.681C199.65 136.862 199.068 141.451 201.291 145.05C202.842 147.569 205.625 149.303 206.635 152.087C207.746 155.156 206.38 158.501 205.605 161.672C201.679 177.744 216.149 195.293 232.689 195.171C249.23 195.049 266.188 173.379 269.625 157.196C278.394 115.804 248.302 132.304 238.92 123.84L238.951 123.85ZM201.118 39.3029C179.306 43.2595 164.805 63.1853 162.154 84.3246C161.052 93.0639 153.129 90.5553 153.965 81.6427C155.24 68.1005 172.321 49.7757 182.6 42.8108C196.519 33.3782 193.48 29.5643 186.862 29.9212C178.429 30.3699 171.025 37.6815 165.784 35.6114C160.267 33.4393 165.08 26.964 160.481 23.762C154.057 19.2853 141.983 25.9544 144.583 20.3764C146.888 15.451 162.684 16.481 167.11 20.2744C171.117 23.711 173.728 28.6567 181.345 25.8422C188.157 23.3235 197.508 12.4224 206.309 14.7678C217.444 17.7353 220.32 35.8153 201.118 39.3029ZM248.852 144.592C244.631 147.457 236.972 144.123 233.128 140.278C227.254 134.404 225.918 136.026 226.551 140.778C228.203 153.025 215.568 151.098 217.74 167.74C217.913 169.025 216.078 169.473 215.67 168.239C212.774 159.378 216.057 157.512 216.057 150.425C216.057 135.2 227.05 148.885 216.904 131.182C212.672 123.799 220.656 120.607 223.43 125.094C227.275 131.304 247.761 146.764 247.67 131.223C247.67 130.06 249.301 129.775 249.678 130.876C251.473 136.097 253.808 141.216 248.842 144.581L248.852 144.592Z" fill="#D4D4D4"/>
<path d="M175.207 141.614C169.292 136.668 163.48 136.791 158.83 138.279C152.619 140.268 149.835 145.387 149.295 146.325C145.094 153.535 144.553 162.223 144.115 170.554C143.024 191.276 144.716 231.25 140.841 230.821C137.15 230.413 138.649 209.06 137.619 192.153C134.886 147.579 131.093 148.895 125.627 144.653C119.722 140.064 109.454 138.32 103.457 140.482C103.437 140.482 103.417 140.502 103.396 140.502C99.5824 141.553 100.776 143.664 104.406 144.072C109.8 144.663 113.573 148.069 114.114 151.342C114.919 156.237 111.779 160.775 101.989 159.47C94.0044 158.399 86.3767 159.878 86.3767 167.842C86.8662 180.905 95.3709 191.153 94.9834 205.552C94.8406 210.62 93.984 216.188 96.8597 220.369C99.562 224.295 104.651 225.631 108.566 228.333C113.431 231.698 116.388 237.103 119.926 241.865C123.465 246.617 128.36 251.135 134.284 251.186C141.463 251.247 146.868 244.935 153.354 241.875C154.302 241.427 155.189 241.06 156.076 240.733C158.473 239.856 160.043 237.541 160.104 234.992C160.115 234.513 160.115 234.033 160.104 233.605C159.88 228.527 158.422 223.601 157.127 218.696C154.618 209.152 152.752 199.046 154.271 189.409C154.373 188.757 155.322 188.828 155.322 189.481C155.373 199.637 157.993 209.794 162.909 218.686C164.102 220.848 165.876 223.204 168.354 223.163C169.751 223.143 171.036 222.306 171.933 221.236C174.85 217.769 173.728 213.129 171.831 209.019C170.302 205.715 167.865 201.167 166.396 195.253C166.243 194.641 167.11 194.325 167.395 194.885C171.423 202.799 176.828 207.632 179.796 208.856C181.682 209.631 183.803 208.56 184.293 206.582C187.087 195.355 189.524 183.923 188.627 172.42C187.607 159.419 185.21 149.986 175.207 141.614Z" fill="#D4D4D4"/>
</svg>
