<svg xmlns="http://www.w3.org/2000/svg" xlink="http://www.w3.org/1999/xlink"
  viewBox="0 0 180 28" width="1180" height="280">
  <path
    d="M 17.527 0.001 L 27.472 17.658 C 27.816 16.424 28 15.12 28 13.772 C 28 7.152 23.551 1.589 17.527 0 Z"
    fill="currentColor"></path>
  <path
    d="M 17.527 0.001 L 27.472 17.658 C 27.816 16.424 28 15.12 28 13.772 C 28 7.152 23.551 1.589 17.527 0 Z"
    fill="currentColor"></path>
  <path
    d="M 13.999 28 C 17.944 28 21.506 26.341 24.051 23.675 L 3.949 23.675 C 6.493 26.342 10.056 28 14.001 28 Z"
    fill="currentColor"></path>
  <path
    d="M 13.999 28 C 17.944 28 21.506 26.341 24.051 23.675 L 3.949 23.675 C 6.493 26.342 10.056 28 14.001 28 Z"
    fill="currentColor"></path>
  <path
    d="M 0 13.773 C 0 15.121 0.184 16.424 0.528 17.659 L 10.473 0.001 C 4.449 1.59 0 7.153 0 13.773 Z"
    fill="currentColor"></path>
  <path
    d="M 0 13.773 C 0 15.121 0.184 16.424 0.528 17.659 L 10.473 0.001 C 4.449 1.59 0 7.153 0 13.773 Z"
    fill="currentColor"></path>
  <path d="M 20.653 17.634 L 13.999 5.821 L 7.347 17.634 Z" fill="currentColor"></path>
  <path d="M 20.653 17.634 L 13.999 5.821 L 7.347 17.634 Z" fill="currentColor"></path>
  <path
    d="M 44.544 2.044 L 48.573 2.044 L 56.151 21.949 L 51.814 21.949 L 50.388 17.912 L 42.501 17.912 L 41.075 21.949 L 36.993 21.949 Z M 43.646 14.7 L 49.243 14.7 L 46.447 6.846 L 43.651 14.7 Z"
    fill="currentColor"></path>
  <path
    d="M 66.296 20.244 C 65.441 21.769 63.815 22.578 61.972 22.578 C 58.42 22.578 56.984 20.384 56.984 16.722 L 56.984 7.282 L 60.788 7.282 L 60.788 15.887 C 60.788 17.884 61.091 19.497 63.212 19.497 C 65.745 19.497 66.3 17.417 66.3 15.057 L 66.3 7.282 L 70.103 7.282 L 70.103 22.215 L 66.3 22.215 L 66.3 20.244 Z"
    fill="currentColor"></path>
  <path
    d="M 73.441 3.091 L 77.233 3.091 L 77.233 7.116 L 80.307 7.116 L 80.307 9.733 L 77.233 9.733 L 77.233 17.4 C 77.233 18.915 77.756 19.219 79.101 19.219 L 80.255 19.219 L 80.255 21.949 L 77.48 21.949 C 74.072 21.949 73.441 20.903 73.441 17.951 L 73.441 9.733 L 71.353 9.733 L 71.353 7.116 L 73.441 7.116 Z"
    fill="currentColor"></path>
  <path
    d="M 80.724 14.838 C 80.724 9.631 84.444 7.072 88.22 7.072 C 91.997 7.072 95.717 9.635 95.717 14.838 C 95.717 20.041 91.997 22.578 88.22 22.578 C 84.444 22.578 80.724 20.015 80.724 14.838 Z M 84.614 14.838 C 84.614 18.003 86.113 19.603 88.225 19.603 C 90.336 19.603 91.835 18.008 91.835 14.838 C 91.835 11.669 90.336 10.047 88.225 10.047 C 86.113 10.047 84.614 11.673 84.614 14.838 Z"
    fill="currentColor"></path>
  <path
    d="M 101.423 9.317 C 102.284 7.831 103.892 7.072 105.754 7.072 C 109.39 7.072 110.918 9.13 110.918 12.78 L 110.918 21.949 L 107.087 21.949 L 107.087 13.589 C 107.087 11.723 106.672 10.071 104.504 10.071 C 101.978 10.071 101.423 12.073 101.423 14.372 L 101.423 21.949 L 97.591 21.949 L 97.591 7.396 L 101.423 7.396 Z"
    fill="currentColor"></path>
  <path
    d="M 112.585 14.838 C 112.585 9.631 116.305 7.072 120.082 7.072 C 123.859 7.072 127.578 9.635 127.578 14.838 C 127.578 20.041 123.859 22.578 120.082 22.578 C 116.305 22.578 112.585 20.015 112.585 14.838 Z M 116.471 14.838 C 116.471 18.003 117.97 19.603 120.082 19.603 C 122.193 19.603 123.692 18.008 123.692 14.838 C 123.692 11.669 122.193 10.047 120.082 10.047 C 117.97 10.047 116.471 11.673 116.471 14.838 Z"
    fill="currentColor"></path>
  <path
    d="M 147.721 13.474 C 147.721 11.877 147.582 10.067 145.349 10.067 C 142.782 10.067 142.396 12.149 142.396 14.368 L 142.396 21.945 L 138.587 21.945 L 138.587 13.478 C 138.587 11.881 138.448 10.071 136.215 10.071 C 133.648 10.071 133.261 12.153 133.261 14.372 L 133.261 21.949 L 129.452 21.949 L 129.452 7.396 L 133.261 7.396 L 133.261 9.317 C 134.117 7.882 135.607 7.072 137.401 7.072 C 139.938 7.072 141.04 8.371 141.623 9.453 C 142.808 7.831 144.273 7.072 146.504 7.072 C 150.231 7.072 151.526 9.347 151.526 12.78 L 151.526 21.949 L 147.717 21.949 L 147.717 13.482 Z"
    fill="currentColor"></path>
  <path
    d="M 153.725 26.978 L 153.725 24.051 L 155.132 24.051 C 156.378 24.051 156.92 24.051 157.573 22.503 L 157.734 22.09 L 152.151 7.282 L 156.242 7.282 L 159.548 18.002 L 162.935 7.282 L 166.728 7.282 L 161.391 21.703 C 159.654 26.317 158.925 26.978 155.294 26.978 Z"
    fill="currentColor"></path>
  <path
    d="M 176.422 11.902 C 176.119 10.667 175.022 9.79 173.267 9.79 C 171.867 9.79 170.878 10.313 170.878 11.216 C 170.878 12.011 171.452 12.615 172.852 12.918 L 174.827 13.358 C 177.766 14.015 180.263 14.758 180.263 17.804 C 180.263 20.85 177.217 22.578 173.868 22.578 C 170.246 22.578 167.498 20.711 167.144 17.337 L 170.796 17.337 C 171.016 18.763 172.005 19.834 173.981 19.834 C 175.626 19.834 176.642 19.23 176.642 18.158 C 176.642 17.087 175.519 16.65 174.226 16.348 L 172.031 15.881 C 169.257 15.307 167.42 14.153 167.42 11.462 C 167.42 8.77 170.276 7.072 173.457 7.072 C 176.637 7.072 179.442 8.498 179.96 11.902 Z"
    fill="currentColor"></path>
</svg>