<svg width="512" height="512" viewBox="0 0 32 32" fill="none" xmlns="http://www.w3.org/2000/svg">
<path d="M20.0307 0.00121747L31.3962 20.1808C31.7892 18.7697 32 17.2796 32 15.7395C32 8.1741 26.9157 1.81647 20.0307 0V0.00121747Z" fill="currentColor"></path>
<path d="M20.0307 0.00121747L31.3962 20.1808C31.7892 18.7697 32 17.2796 32 15.7395C32 8.1741 26.9157 1.81647 20.0307 0V0.00121747Z" fill="currentColor"></path>
<path d="M15.9994 32C20.5075 32 24.5783 30.1044 27.4871 27.0571H4.5129C7.42046 30.1056 11.4925 32 16.0006 32H15.9994Z" fill="currentColor"></path>
<path d="M15.9994 32C20.5075 32 24.5783 30.1044 27.4871 27.0571H4.5129C7.42046 30.1056 11.4925 32 16.0006 32H15.9994Z" fill="currentColor"></path>
<path d="M0 15.7407C0 17.2808 0.210849 18.7697 0.603796 20.182L11.9693 0.00121747C5.08435 1.81768 0 8.17532 0 15.7407Z" fill="currentColor"></path>
<path d="M0 15.7407C0 17.2808 0.210849 18.7697 0.603796 20.182L11.9693 0.00121747C5.08435 1.81768 0 8.17532 0 15.7407Z" fill="currentColor"></path>
<path d="M23.6032 20.1528L15.9994 6.65226L8.39684 20.1528H23.6032Z" fill="currentColor"></path>
<path d="M23.6032 20.1528L15.9994 6.65226L8.39684 20.1528H23.6032Z" fill="currentColor"></path>
</svg>