<svg width="174" height="194" viewBox="0 0 174 194" fill="none" xmlns="http://www.w3.org/2000/svg">
<path d="M86.7569 193.445C70.9497 193.445 55.1298 193.445 39.3226 193.445C33.6479 193.445 32.3029 192.452 31.2653 186.74C29.1133 174.851 27.1662 162.937 25.0911 151.035C22.068 133.692 18.9937 116.362 15.9962 99.0191C13.4855 84.5129 11.0645 69.9937 8.56659 55.4746C5.97903 40.6331 3.35305 25.7916 0.778303 10.9501C0.509299 9.36405 0.342773 7.73935 0.342773 6.14044C0.368393 2.83946 2.07208 0.750557 5.30012 0.711873C15.7272 0.570034 26.1543 0.621612 36.5814 0.686084C40.0528 0.711873 41.2057 3.39392 41.8205 6.16622C42.8837 10.9887 43.7548 15.8629 44.613 20.737C46.7907 33.0898 48.9171 45.4427 51.0691 57.7956C54.5149 77.5112 57.9351 97.2268 61.4193 116.942C62.4569 122.835 63.5586 128.715 64.7755 134.569C66.9915 145.246 75.7149 152.518 86.4879 152.815C96.8125 153.098 106.304 146.161 108.994 135.949C111.582 126.149 112.748 116.066 114.554 106.098C117.718 88.5489 120.792 70.9866 123.867 53.4244C126.313 39.3694 128.696 25.3145 131.104 11.2595C131.206 10.6922 131.245 10.1119 131.347 9.54457C132.731 1.47265 133.756 0.595823 141.787 0.595823C150.152 0.595823 158.517 0.570034 166.881 0.608718C172.095 0.634507 174.234 2.7492 173.453 7.82961C171.506 20.4404 169.302 33.0254 167.15 45.6103C164.179 62.9534 161.168 80.2964 158.158 97.6394C155.622 112.262 153.034 126.884 150.498 141.506C147.974 156.013 145.476 170.519 142.966 185.025C142.825 185.825 142.697 186.611 142.53 187.398C141.518 192.091 139.981 193.407 135.242 193.407C119.089 193.432 102.936 193.407 86.7697 193.407L86.7569 193.445Z" fill="black"/>
</svg>
